G04*
G04 #@! TF.GenerationSoftware,Altium Limited,Altium Designer,20.0.12 (288)*
G04*
G04 Layer_Color=8388736*
%FSLAX44Y44*%
%MOMM*%
G71*
G01*
G75*
%ADD10C,0.2000*%
%ADD11C,0.2540*%
%ADD12C,0.1270*%
%ADD14C,0.0000*%
%ADD15C,0.0500*%
%ADD29R,0.5032X1.3432*%
%ADD30R,0.5032X1.4032*%
%ADD31R,1.4032X0.5032*%
%ADD32R,1.0032X1.0032*%
%ADD33R,1.0032X1.0032*%
%ADD34R,1.2032X0.7620*%
%ADD35R,1.1932X1.1232*%
%ADD36C,1.8032*%
%ADD37R,1.1032X0.8032*%
%ADD38R,1.2032X1.5032*%
G04:AMPARAMS|DCode=39|XSize=1.1132mm|YSize=1.0332mm|CornerRadius=0.3216mm|HoleSize=0mm|Usage=FLASHONLY|Rotation=0.000|XOffset=0mm|YOffset=0mm|HoleType=Round|Shape=RoundedRectangle|*
%AMROUNDEDRECTD39*
21,1,1.1132,0.3901,0,0,0.0*
21,1,0.4701,1.0332,0,0,0.0*
1,1,0.6431,0.2351,-0.1951*
1,1,0.6431,-0.2351,-0.1951*
1,1,0.6431,-0.2351,0.1951*
1,1,0.6431,0.2351,0.1951*
%
%ADD39ROUNDEDRECTD39*%
G04:AMPARAMS|DCode=40|XSize=1.4132mm|YSize=0.7932mm|CornerRadius=0.1754mm|HoleSize=0mm|Usage=FLASHONLY|Rotation=90.000|XOffset=0mm|YOffset=0mm|HoleType=Round|Shape=RoundedRectangle|*
%AMROUNDEDRECTD40*
21,1,1.4132,0.4425,0,0,90.0*
21,1,1.0625,0.7932,0,0,90.0*
1,1,0.3507,0.2213,0.5313*
1,1,0.3507,0.2213,-0.5313*
1,1,0.3507,-0.2213,-0.5313*
1,1,0.3507,-0.2213,0.5313*
%
%ADD40ROUNDEDRECTD40*%
%ADD41R,1.6032X1.4032*%
%ADD42C,0.8532*%
%ADD43O,1.2032X2.2032*%
%ADD44O,1.1032X2.0032*%
%ADD45C,4.2032*%
%ADD46R,1.7032X1.7032*%
%ADD47C,1.7032*%
D10*
X1331519Y519537D02*
G03*
X1331519Y519537I-1000J0D01*
G01*
X1378050Y540000D02*
G03*
X1378050Y540000I-1000J0D01*
G01*
X1407510Y770420D02*
G03*
X1407510Y770420I-1000J0D01*
G01*
D11*
X1495157Y449343D02*
G03*
X1525157Y479343I0J30000D01*
G01*
X1525000Y958000D02*
G03*
X1495000Y988000I-30000J0D01*
G01*
X1270000Y988250D02*
G03*
X1240000Y958250I0J-30000D01*
G01*
X1240270Y479770D02*
G03*
X1270270Y449770I30000J0D01*
G01*
Y449500D02*
X1495157Y449500D01*
X1525000Y958000D02*
X1525000Y479343D01*
X1270000Y988237D02*
X1495000Y988018D01*
X1240000Y958250D02*
X1240000Y479770D01*
X1270270Y449500D02*
X1341750D01*
X1365569Y453537D02*
Y460534D01*
X1369067D01*
X1370234Y459368D01*
Y457035D01*
X1369067Y455869D01*
X1365569D01*
X1377231Y459368D02*
X1376065Y460534D01*
X1373733D01*
X1372566Y459368D01*
Y454703D01*
X1373733Y453537D01*
X1376065D01*
X1377231Y454703D01*
X1379564Y460534D02*
Y453537D01*
X1383063D01*
X1384229Y454703D01*
Y455869D01*
X1383063Y457035D01*
X1379564D01*
X1383063D01*
X1384229Y458202D01*
Y459368D01*
X1383063Y460534D01*
X1379564D01*
X1398225D02*
X1393560D01*
Y453537D01*
X1398225D01*
X1393560Y457035D02*
X1395892D01*
X1405222Y460534D02*
Y453537D01*
X1401724D01*
X1400557Y454703D01*
Y457035D01*
X1401724Y458202D01*
X1405222D01*
X1409888Y451204D02*
X1411054D01*
X1412220Y452370D01*
Y458202D01*
X1408721D01*
X1407555Y457035D01*
Y454703D01*
X1408721Y453537D01*
X1412220D01*
X1418052D02*
X1415719D01*
X1414553Y454703D01*
Y457035D01*
X1415719Y458202D01*
X1418052D01*
X1419218Y457035D01*
Y455869D01*
X1414553D01*
D12*
X1341569Y446037D02*
Y519537D01*
Y446037D02*
X1430969D01*
Y519537D01*
X1341569D02*
X1430969D01*
X1331569Y450937D02*
X1440969D01*
X1321150Y538000D02*
Y554000D01*
Y538000D02*
X1329350D01*
Y554000D01*
X1321150D02*
X1329350D01*
X1482000Y805750D02*
Y813750D01*
Y805750D02*
X1498000D01*
Y813750D01*
X1482000D02*
X1498000D01*
X1482000Y789250D02*
Y797250D01*
Y789250D02*
X1498000D01*
Y797250D01*
X1482000D02*
X1498000D01*
X1371875Y557425D02*
Y573675D01*
X1401125D01*
Y557425D02*
Y573675D01*
X1371875Y557425D02*
X1401125D01*
X1411510Y735920D02*
Y760920D01*
X1379510Y735920D02*
X1411510D01*
X1379510Y760920D02*
X1411510D01*
X1379510Y735920D02*
Y760920D01*
D14*
X1429443Y522135D02*
G03*
X1426270Y518611I176J-3349D01*
G01*
X1432768Y519152D02*
G03*
X1429453Y522136I-3149J-165D01*
G01*
Y505137D02*
G03*
X1432768Y508122I165J3149D01*
G01*
X1426269Y508128D02*
G03*
X1429477Y505137I3100J108D01*
G01*
X1432769Y508137D02*
Y519137D01*
X1426269Y508137D02*
Y518637D01*
X1469660Y575610D02*
G03*
X1463564Y575610I-3048J0D01*
G01*
X1459500Y605582D02*
X1473724D01*
X1459500Y593136D02*
Y605582D01*
Y588056D02*
Y593136D01*
Y575610D02*
Y588056D01*
Y575610D02*
X1463564D01*
X1469660D01*
X1473724D01*
Y578404D01*
Y583484D01*
Y597708D01*
Y578404D02*
X1479058D01*
Y583484D01*
X1473724D02*
X1479058D01*
X1473724Y602788D02*
Y605582D01*
Y597708D02*
Y602788D01*
Y597708D02*
X1479058D01*
Y602788D01*
X1473724D02*
X1479058D01*
X1454166Y593136D02*
X1459500D01*
X1454166Y588056D02*
Y593136D01*
Y588056D02*
X1459500D01*
D15*
X1335519Y443537D02*
Y527737D01*
Y443537D02*
X1437019D01*
Y527737D01*
X1335519D02*
X1437019D01*
X1333450Y531100D02*
Y560900D01*
X1317050D02*
X1333450D01*
X1317050Y531100D02*
Y560900D01*
Y531100D02*
X1333450D01*
X1476300Y803050D02*
Y816450D01*
Y803050D02*
X1503700D01*
Y816450D01*
X1476300D02*
X1503700D01*
X1476300Y786550D02*
Y799950D01*
Y786550D02*
X1503700D01*
Y799950D01*
X1476300D02*
X1503700D01*
X1369375Y544450D02*
X1403625D01*
Y586650D01*
X1369375D02*
X1403625D01*
X1369375Y544450D02*
Y586650D01*
X1416010Y731420D02*
Y765420D01*
X1375010D02*
X1416010D01*
X1375010Y731420D02*
X1416010D01*
X1375010D02*
Y765420D01*
D29*
X1383769Y519537D02*
D03*
X1378769D02*
D03*
X1373769D02*
D03*
X1368769D02*
D03*
X1363769D02*
D03*
X1360769D02*
D03*
X1355769D02*
D03*
X1352769D02*
D03*
X1388769D02*
D03*
X1393769D02*
D03*
X1398769D02*
D03*
X1403769D02*
D03*
X1408769D02*
D03*
X1411769D02*
D03*
X1416769D02*
D03*
X1419769D02*
D03*
D30*
X1415780Y715790D02*
D03*
X1410780D02*
D03*
X1405780D02*
D03*
X1400780D02*
D03*
X1395780D02*
D03*
X1390780D02*
D03*
X1385780D02*
D03*
X1380780D02*
D03*
X1375780D02*
D03*
X1370780D02*
D03*
X1365780D02*
D03*
X1360780D02*
D03*
Y630790D02*
D03*
X1365780D02*
D03*
X1370780D02*
D03*
X1375780D02*
D03*
X1380780D02*
D03*
X1385780D02*
D03*
X1390780D02*
D03*
X1395780D02*
D03*
X1400780D02*
D03*
X1405780D02*
D03*
X1410780D02*
D03*
X1415780D02*
D03*
D31*
X1345780Y700790D02*
D03*
Y695790D02*
D03*
Y690790D02*
D03*
Y685790D02*
D03*
Y680790D02*
D03*
Y675790D02*
D03*
Y670790D02*
D03*
Y665790D02*
D03*
Y660790D02*
D03*
Y655790D02*
D03*
Y650790D02*
D03*
Y645790D02*
D03*
X1430780D02*
D03*
Y650790D02*
D03*
Y655790D02*
D03*
Y660790D02*
D03*
Y665790D02*
D03*
Y670790D02*
D03*
Y675790D02*
D03*
Y680790D02*
D03*
Y685790D02*
D03*
Y690790D02*
D03*
Y695790D02*
D03*
Y700790D02*
D03*
D32*
X1293500Y841750D02*
D03*
Y856750D02*
D03*
X1345000Y841750D02*
D03*
Y856750D02*
D03*
X1370250Y841750D02*
D03*
Y856750D02*
D03*
X1420500Y841750D02*
D03*
Y856750D02*
D03*
X1471750Y841750D02*
D03*
Y856750D02*
D03*
X1497500Y841750D02*
D03*
Y856750D02*
D03*
X1367000Y754632D02*
D03*
Y739632D02*
D03*
X1387000Y614250D02*
D03*
Y599250D02*
D03*
X1351750Y614250D02*
D03*
Y599250D02*
D03*
X1424250Y755500D02*
D03*
Y740500D02*
D03*
X1407370Y789210D02*
D03*
Y774210D02*
D03*
X1353140Y739632D02*
D03*
Y754632D02*
D03*
X1339250D02*
D03*
Y739632D02*
D03*
X1383240Y789210D02*
D03*
Y774210D02*
D03*
X1421750Y599250D02*
D03*
Y614250D02*
D03*
X1438250Y755500D02*
D03*
Y740500D02*
D03*
D33*
X1459553Y552596D02*
D03*
X1474553D02*
D03*
X1459553Y614846D02*
D03*
X1474553D02*
D03*
Y566596D02*
D03*
X1459553D02*
D03*
Y538596D02*
D03*
X1474553D02*
D03*
X1295000Y597250D02*
D03*
X1310000D02*
D03*
X1339250Y808000D02*
D03*
X1354250D02*
D03*
X1368070D02*
D03*
X1383070D02*
D03*
X1295750Y664000D02*
D03*
X1310750D02*
D03*
X1429500Y538000D02*
D03*
X1414500D02*
D03*
X1447250Y681000D02*
D03*
X1462250D02*
D03*
Y695750D02*
D03*
X1447250D02*
D03*
X1344000Y538000D02*
D03*
X1359000D02*
D03*
D34*
X1476772Y580944D02*
D03*
Y600248D02*
D03*
X1456452Y590596D02*
D03*
D35*
X1325250Y553750D02*
D03*
Y538250D02*
D03*
D36*
X1499500Y615000D02*
D03*
Y660250D02*
D03*
Y637625D02*
D03*
D37*
X1293000Y621750D02*
D03*
Y612250D02*
D03*
Y631250D02*
D03*
X1313000D02*
D03*
Y612250D02*
D03*
D38*
X1284750Y647750D02*
D03*
X1309750D02*
D03*
D39*
X1497500Y809750D02*
D03*
X1482500D02*
D03*
X1497500Y793250D02*
D03*
X1482500D02*
D03*
D40*
X1377000Y553000D02*
D03*
X1386500D02*
D03*
X1396000D02*
D03*
Y578100D02*
D03*
X1386500D02*
D03*
X1377000D02*
D03*
D41*
X1406510Y756920D02*
D03*
X1384510D02*
D03*
Y739920D02*
D03*
X1406510D02*
D03*
D42*
X1357369Y508837D02*
D03*
X1415169D02*
D03*
D43*
X1343019Y513637D02*
D03*
X1429519D02*
D03*
D44*
X1343019Y471837D02*
D03*
X1429519D02*
D03*
D45*
X1270000Y479500D02*
D03*
X1495000D02*
D03*
Y738500D02*
D03*
X1270000D02*
D03*
D46*
X1268150Y903000D02*
D03*
D47*
X1293550D02*
D03*
X1318950D02*
D03*
X1344350D02*
D03*
X1369750D02*
D03*
X1395150D02*
D03*
X1420550D02*
D03*
X1445950D02*
D03*
X1471350D02*
D03*
X1496750D02*
D03*
X1268150Y928400D02*
D03*
X1293550D02*
D03*
X1318950D02*
D03*
X1344350D02*
D03*
X1369750D02*
D03*
X1395150D02*
D03*
X1420550D02*
D03*
X1445950D02*
D03*
X1471350D02*
D03*
X1496750D02*
D03*
M02*
