G04*
G04 #@! TF.GenerationSoftware,Altium Limited,Altium Designer,20.0.12 (288)*
G04*
G04 Layer_Physical_Order=1*
G04 Layer_Color=6495743*
%FSLAX44Y44*%
%MOMM*%
G71*
G01*
G75*
%ADD10C,0.2000*%
%ADD11C,0.2540*%
%ADD12C,0.1270*%
%ADD14C,0.0000*%
%ADD15C,0.0500*%
%ADD16R,0.3000X1.1400*%
%ADD17R,0.3000X1.2000*%
%ADD18R,1.2000X0.3000*%
%ADD19R,0.8000X0.8000*%
%ADD20R,0.8000X0.8000*%
%ADD21R,1.0000X0.5588*%
%ADD22R,0.9900X0.9200*%
%ADD23C,1.6000*%
%ADD24R,0.9000X0.6000*%
%ADD25R,1.0000X1.3000*%
G04:AMPARAMS|DCode=26|XSize=0.91mm|YSize=0.83mm|CornerRadius=0.22mm|HoleSize=0mm|Usage=FLASHONLY|Rotation=0.000|XOffset=0mm|YOffset=0mm|HoleType=Round|Shape=RoundedRectangle|*
%AMROUNDEDRECTD26*
21,1,0.9100,0.3901,0,0,0.0*
21,1,0.4701,0.8300,0,0,0.0*
1,1,0.4399,0.2351,-0.1951*
1,1,0.4399,-0.2351,-0.1951*
1,1,0.4399,-0.2351,0.1951*
1,1,0.4399,0.2351,0.1951*
%
%ADD26ROUNDEDRECTD26*%
G04:AMPARAMS|DCode=27|XSize=1.21mm|YSize=0.59mm|CornerRadius=0.0738mm|HoleSize=0mm|Usage=FLASHONLY|Rotation=90.000|XOffset=0mm|YOffset=0mm|HoleType=Round|Shape=RoundedRectangle|*
%AMROUNDEDRECTD27*
21,1,1.2100,0.4425,0,0,90.0*
21,1,1.0625,0.5900,0,0,90.0*
1,1,0.1475,0.2213,0.5313*
1,1,0.1475,0.2213,-0.5313*
1,1,0.1475,-0.2213,-0.5313*
1,1,0.1475,-0.2213,0.5313*
%
%ADD27ROUNDEDRECTD27*%
%ADD28R,1.4000X1.2000*%
%ADD48C,0.6500*%
%ADD49O,1.0000X2.0000*%
%ADD50O,0.9000X1.8000*%
%ADD51C,4.0000*%
%ADD52R,1.5000X1.5000*%
%ADD53C,1.5000*%
%ADD54C,0.4000*%
G36*
X1524000Y965000D02*
X1524000Y709000D01*
X1517750Y702750D01*
X1456250Y702750D01*
X1454000Y700500D01*
Y691250D01*
X1452250Y689500D01*
X1442250D01*
X1440250Y691500D01*
Y698250D01*
X1439000Y699500D01*
X1425000D01*
X1425000Y713250D01*
X1427750Y716000D01*
X1506000Y716000D01*
X1517750Y727750D01*
Y753250D01*
X1510500Y760500D01*
Y798750D01*
X1506500Y802750D01*
X1493500D01*
X1490250Y806000D01*
Y814250D01*
X1494000Y818000D01*
X1506750D01*
X1510500Y821750D01*
Y937250D01*
X1503500Y944250D01*
X1285750D01*
X1283250Y941750D01*
Y839500D01*
X1289000Y833750D01*
X1344000D01*
X1348250Y829500D01*
X1348250Y812250D01*
X1348250Y800500D01*
X1357250Y791500D01*
X1357250Y749625D01*
X1359875Y747000D01*
X1358627Y745752D01*
X1352498D01*
X1349000Y749250D01*
Y757250D01*
X1344000Y762250D01*
X1258250D01*
X1247750Y751750D01*
Y727250D01*
X1260250Y714750D01*
X1328000D01*
X1331250Y711500D01*
Y649000D01*
X1332977Y647273D01*
X1339921D01*
X1343000Y644250D01*
X1333500D01*
X1330750Y641500D01*
Y630500D01*
X1327000Y626750D01*
X1305000D01*
X1303750Y628000D01*
Y668500D01*
X1301500Y670750D01*
X1246500D01*
X1242250Y675000D01*
Y816750D01*
X1242250Y967250D01*
X1260750Y985750D01*
X1503250Y985750D01*
X1524000Y965000D01*
D02*
G37*
G36*
X1298500Y636500D02*
X1300500Y634500D01*
X1300500Y628500D01*
X1299000Y627000D01*
X1286500D01*
X1285000Y625500D01*
Y618500D01*
X1287000Y616500D01*
X1298500D01*
X1300500Y614500D01*
Y609000D01*
X1298750Y607250D01*
X1286500D01*
X1283750Y604500D01*
Y572250D01*
X1286000Y570000D01*
X1381000D01*
X1383000Y572000D01*
Y603250D01*
X1391000D01*
Y566500D01*
X1386500Y562000D01*
X1373750D01*
X1370500Y558750D01*
Y550500D01*
X1367000Y547000D01*
X1321250Y547000D01*
X1317000Y542750D01*
X1317000Y464750D01*
X1320500Y461250D01*
X1449500Y461250D01*
X1453250Y465000D01*
X1453250Y530000D01*
X1456500Y533250D01*
X1487750D01*
X1491750Y537250D01*
X1491750Y584250D01*
X1488250Y587750D01*
X1461250Y587750D01*
X1451500D01*
X1451500Y592250D01*
X1452500Y593250D01*
X1461250Y593250D01*
X1462250Y592250D01*
X1518750Y592250D01*
X1523250Y587750D01*
Y506750D01*
X1518750Y502250D01*
X1487000Y502250D01*
X1473250Y488500D01*
Y456750D01*
X1468500Y452000D01*
X1298000Y452000D01*
X1292750Y457250D01*
Y490500D01*
X1281000Y502250D01*
X1248750D01*
X1242250Y508750D01*
Y633250D01*
X1245500Y636500D01*
X1298500Y636500D01*
D02*
G37*
D10*
X1331519Y519537D02*
G03*
X1331519Y519537I-1000J0D01*
G01*
X1378050Y540000D02*
G03*
X1378050Y540000I-1000J0D01*
G01*
X1407510Y770420D02*
G03*
X1407510Y770420I-1000J0D01*
G01*
D11*
X1408980Y492980D02*
Y519325D01*
X1404750Y488750D02*
X1408980Y492980D01*
X1408769Y519537D02*
X1408980Y519325D01*
X1460635Y455250D02*
X1470040Y464655D01*
Y489417D01*
X1302596Y455250D02*
X1460635D01*
X1470040Y489417D02*
X1487123Y506500D01*
X1493500D01*
X1295500Y462346D02*
Y492250D01*
Y462346D02*
X1302596Y455250D01*
X1325250Y565904D02*
X1383958D01*
X1280000D02*
X1325250D01*
X1411010Y708738D02*
Y715560D01*
Y708738D02*
X1412498Y707250D01*
X1418332D01*
X1506437Y671290D02*
X1510706Y667021D01*
X1493709Y671290D02*
X1506437D01*
X1510706Y599238D02*
Y667021D01*
X1506382Y594914D02*
X1510706Y599238D01*
X1269978Y978250D02*
X1498388D01*
X1519250Y809133D02*
Y957388D01*
X1498388Y978250D02*
X1519250Y957388D01*
X1245750Y929250D02*
Y954022D01*
X1269978Y978250D01*
X1245750Y808000D02*
Y809000D01*
Y689482D02*
Y808000D01*
Y929250D02*
X1267300D01*
X1245750Y903250D02*
Y929250D01*
X1354250Y808000D02*
Y819250D01*
X1358500Y823500D01*
X1440235D01*
X1354250Y799500D02*
Y808000D01*
X1445950Y829215D02*
Y903000D01*
X1440235Y823500D02*
X1445950Y829215D01*
X1404750Y646355D02*
X1405780Y645325D01*
Y630790D02*
Y645325D01*
X1404750Y646355D02*
Y646750D01*
X1391010Y646510D02*
X1391250Y646750D01*
X1391010Y631020D02*
Y646510D01*
X1474500Y614793D02*
X1474553Y614846D01*
X1474500Y608250D02*
Y614793D01*
Y608250D02*
X1476772Y605978D01*
Y600248D02*
Y605978D01*
X1371010Y642589D02*
X1371460Y643040D01*
X1371010Y631020D02*
Y642589D01*
X1370780Y630790D02*
X1371010Y631020D01*
X1345500Y701020D02*
Y707472D01*
X1360740Y715750D02*
X1360780Y715790D01*
X1353750Y715750D02*
X1360740D01*
X1345730Y700790D02*
X1345780D01*
X1345500Y701020D02*
X1345730Y700790D01*
X1385250Y646355D02*
Y646750D01*
Y646355D02*
X1385780Y645825D01*
Y630790D02*
Y645825D01*
X1375780Y666220D02*
Y715790D01*
Y725220D01*
X1380890Y700423D02*
X1381063Y700250D01*
X1380890Y700423D02*
Y715680D01*
X1380780Y715790D02*
X1380890Y715680D01*
X1345800Y650770D02*
X1360690D01*
X1360710Y650750D01*
X1345800Y665770D02*
X1360690D01*
X1360710Y665750D01*
X1345780Y665790D02*
X1345800Y665770D01*
X1345780Y650790D02*
X1345800Y650770D01*
X1430780Y680790D02*
X1447040D01*
X1447250Y681000D01*
X1345780Y675790D02*
X1345885Y675895D01*
X1361395D01*
X1361500Y676000D01*
X1365780Y630790D02*
Y642325D01*
X1365250Y642855D02*
X1365780Y642325D01*
X1365250Y642855D02*
Y643250D01*
X1311488Y604750D02*
X1311512D01*
X1313000Y606238D02*
Y612250D01*
X1311512Y604750D02*
X1313000Y606238D01*
X1310000Y597250D02*
Y603262D01*
X1311488Y604750D01*
X1464086Y594914D02*
X1506382D01*
X1466992Y556440D02*
Y582358D01*
X1449778Y585000D02*
X1464350D01*
X1466992Y582358D01*
X1465505Y554953D02*
X1466992Y556440D01*
X1459553Y552596D02*
X1461909Y554953D01*
X1465505D01*
X1449778Y596110D02*
X1462890D01*
X1448290Y594622D02*
X1449778Y596110D01*
X1448290Y586488D02*
X1449778Y585000D01*
X1448290Y586488D02*
Y594622D01*
X1462890Y596110D02*
X1464086Y594914D01*
X1491000Y666656D02*
Y668580D01*
X1493709Y671290D01*
X1489047Y664703D02*
X1491000Y666656D01*
X1483934Y664703D02*
X1489047D01*
X1479750Y660519D02*
X1483934Y664703D01*
X1483813Y649063D02*
Y658062D01*
X1486001Y660250D01*
X1499500D01*
X1479750Y652278D02*
Y660519D01*
X1430780Y650790D02*
X1478262D01*
X1479750Y652278D01*
X1390780Y630790D02*
X1391010Y631020D01*
X1498117Y809133D02*
X1519250D01*
X1497500Y809750D02*
X1498117Y809133D01*
X1447250Y714000D02*
X1510250D01*
X1436250D02*
X1447250D01*
X1447250Y695750D02*
Y714000D01*
X1447250Y714000D02*
X1447250Y714000D01*
X1431010Y700560D02*
X1431040D01*
X1431500Y701020D01*
Y709250D01*
X1436250Y714000D01*
X1510250D02*
X1519250Y723000D01*
X1480540Y645790D02*
X1483813Y649063D01*
X1430780Y645790D02*
X1480540D01*
X1411750Y661750D02*
X1415780Y657720D01*
X1380250Y661750D02*
X1411750D01*
X1375780Y666220D02*
X1380250Y661750D01*
X1415000Y695750D02*
X1415020Y695770D01*
X1430760D02*
X1430780Y695790D01*
X1415020Y695770D02*
X1430760D01*
X1482500Y793250D02*
Y809750D01*
X1496750Y857500D02*
X1497500Y856750D01*
X1496750Y857500D02*
Y903000D01*
X1436750Y730250D02*
X1438250Y731750D01*
Y740500D01*
X1424500Y730250D02*
X1436750D01*
X1419820Y725570D02*
X1424500Y730250D01*
X1418332Y707250D02*
X1419820Y708738D01*
X1410780Y715790D02*
X1411010Y715560D01*
X1419820Y708738D02*
Y725570D01*
X1407268Y727570D02*
X1416140D01*
X1405780Y726082D02*
X1407268Y727570D01*
X1405780Y715790D02*
Y726082D01*
X1416140Y727570D02*
X1421583Y733013D01*
X1397268Y731380D02*
X1414562D01*
X1416050Y732868D01*
Y745084D01*
X1416500Y745534D02*
Y757750D01*
X1416050Y745084D02*
X1416500Y745534D01*
X1421583Y733013D02*
Y737833D01*
X1424250Y740500D01*
X1395780Y715790D02*
Y729892D01*
X1397268Y731380D01*
X1395250Y736909D02*
Y739750D01*
X1390780Y732439D02*
X1395250Y736909D01*
X1390780Y715790D02*
Y732439D01*
X1367500Y796000D02*
X1370500D01*
X1357750D02*
X1367500D01*
Y807430D02*
X1368070Y808000D01*
X1367500Y796000D02*
Y807430D01*
X1354250Y799500D02*
X1357750Y796000D01*
X1370500D02*
X1374500Y792000D01*
Y732750D02*
Y792000D01*
Y732750D02*
X1379000Y728250D01*
X1385780Y715790D02*
Y726762D01*
X1384292Y728250D02*
X1385780Y726762D01*
X1379000Y728250D02*
X1384292D01*
X1395250Y739750D02*
Y772722D01*
X1384510Y739920D02*
X1395080D01*
X1395250Y739750D01*
X1393762Y774210D02*
X1395250Y772722D01*
X1383240Y774210D02*
X1393762D01*
X1416500Y757750D02*
Y771750D01*
X1406510Y756920D02*
X1407340Y757750D01*
X1416500D01*
X1415756Y772494D02*
X1416500Y771750D01*
X1407370Y774210D02*
X1414040D01*
X1415750Y772500D01*
Y772500D02*
Y772500D01*
Y772500D02*
X1415756Y772494D01*
X1255482Y679750D02*
X1324500D01*
X1245750Y689482D02*
X1255482Y679750D01*
X1410765Y630805D02*
X1410780Y630790D01*
X1410765Y630805D02*
Y646735D01*
X1410750Y646750D02*
X1410765Y646735D01*
X1351750Y614250D02*
X1359000D01*
X1360780Y616030D02*
Y630790D01*
X1359000Y614250D02*
X1360780Y616030D01*
X1353140Y726600D02*
Y739632D01*
Y726600D02*
X1353740Y726000D01*
X1353140D02*
X1367000D01*
X1343000D02*
X1353140D01*
X1339250Y729750D02*
Y739632D01*
Y729750D02*
X1343000Y726000D01*
X1370638Y727750D02*
X1373250D01*
X1367500Y730888D02*
X1370638Y727750D01*
X1367000Y726000D02*
X1369060Y723940D01*
X1370550Y716020D02*
Y722452D01*
X1369062Y723940D02*
X1370550Y722452D01*
X1367500Y730888D02*
Y739133D01*
X1369060Y723940D02*
X1369062D01*
X1373250Y727750D02*
X1375780Y725220D01*
X1370550Y716020D02*
X1370780Y715790D01*
Y604780D02*
Y630790D01*
X1365250Y599250D02*
X1370780Y604780D01*
X1351750Y599250D02*
X1365250D01*
X1474649Y538500D02*
X1486739D01*
X1489000Y540760D01*
Y553625D01*
Y567250D01*
X1474553Y538596D02*
X1474649Y538500D01*
X1486512Y580944D02*
X1489000Y578456D01*
X1476772Y580944D02*
X1486512D01*
X1489000Y567250D02*
Y578456D01*
X1474553Y552596D02*
X1487971D01*
X1474553Y566596D02*
X1488346D01*
X1489000Y567250D01*
X1377044Y536281D02*
Y552956D01*
Y536281D02*
X1378980Y534345D01*
Y518030D02*
Y534345D01*
X1369750Y538000D02*
X1373980Y533770D01*
Y518030D02*
Y533770D01*
X1359000Y538000D02*
X1369750D01*
X1377000Y553000D02*
X1377044Y552956D01*
X1406750Y538000D02*
X1414500D01*
X1403980Y535230D02*
X1406750Y538000D01*
X1403980Y518030D02*
Y535230D01*
X1378886Y517936D02*
X1378980Y518030D01*
X1380374Y507250D02*
X1387492D01*
X1378886Y508738D02*
X1380374Y507250D01*
X1378886Y508738D02*
Y517936D01*
X1388980Y508738D02*
Y518030D01*
X1387492Y507250D02*
X1388980Y508738D01*
X1385468Y529258D02*
X1393980D01*
Y534230D01*
Y518030D02*
Y529258D01*
X1383980Y518030D02*
Y527770D01*
X1385468Y529258D01*
X1396000Y553000D02*
X1396000Y553000D01*
X1396000Y536250D02*
Y553000D01*
X1393980Y534230D02*
X1396000Y536250D01*
X1400780Y621530D02*
Y630790D01*
X1396000Y616750D02*
X1400780Y621530D01*
X1396000Y578100D02*
Y616750D01*
X1395550Y630560D02*
X1395780Y630790D01*
X1395550Y622800D02*
Y630560D01*
X1394250Y621500D02*
X1395550Y622800D01*
X1377000Y617750D02*
X1380750Y621500D01*
X1394250D01*
X1377000Y578100D02*
Y617750D01*
X1421000Y630790D02*
X1438183D01*
X1415780D02*
X1421000D01*
X1421750Y614250D02*
Y630040D01*
X1421000Y630790D02*
X1421750Y630040D01*
X1245750Y809000D02*
Y903250D01*
X1415780Y630790D02*
Y657720D01*
X1430780Y700790D02*
X1431010Y700560D01*
X1310750Y664000D02*
X1329210D01*
Y647750D02*
Y664000D01*
Y675040D01*
X1367000Y739632D02*
X1367500Y739133D01*
X1353140Y754632D02*
X1353250Y754522D01*
Y748750D02*
Y754522D01*
Y748750D02*
X1355000Y747000D01*
X1364750D02*
X1367000Y744750D01*
X1355000Y747000D02*
X1364750D01*
X1367000Y739632D02*
Y744750D01*
X1353140Y754632D02*
X1353500Y754993D01*
Y772000D01*
X1346250Y775750D02*
X1349750D01*
X1353500Y772000D01*
X1339250Y782750D02*
Y808000D01*
Y782750D02*
X1346250Y775750D01*
X1246750Y808000D02*
X1339250D01*
X1245750Y809000D02*
X1246750Y808000D01*
X1246000Y903000D02*
X1268150D01*
X1245750Y903250D02*
X1246000Y903000D01*
X1267300Y929250D02*
X1268150Y928400D01*
X1443500Y568500D02*
Y625473D01*
X1438183Y630790D02*
X1443500Y625473D01*
Y568500D02*
X1445404Y566596D01*
X1459553D01*
X1499250Y512250D02*
Y586250D01*
X1494904Y590596D02*
X1499250Y586250D01*
X1456452Y590596D02*
X1494904D01*
X1493500Y506500D02*
X1499250Y512250D01*
X1324500Y679750D02*
X1329210Y675040D01*
X1280000Y565904D02*
Y611500D01*
Y507750D02*
Y565904D01*
Y507750D02*
X1295500Y492250D01*
X1386500Y578100D02*
Y598750D01*
Y568446D02*
Y578100D01*
X1383958Y565904D02*
X1386500Y568446D01*
X1325250Y553750D02*
Y565750D01*
X1309750Y647750D02*
X1329210D01*
Y645790D02*
Y647750D01*
X1313000Y631250D02*
X1325500D01*
X1329210Y634960D02*
Y645790D01*
X1325500Y631250D02*
X1329210Y634960D01*
Y645790D02*
X1345780D01*
X1280000Y611500D02*
Y627948D01*
X1280750Y612250D02*
X1293000D01*
X1280000Y611500D02*
X1280750Y612250D01*
X1283302Y631250D02*
X1293000D01*
X1280000Y627948D02*
X1283302Y631250D01*
X1386500Y598750D02*
X1387000Y599250D01*
X1364000Y488750D02*
X1404750D01*
X1334500D02*
X1364000D01*
X1363980Y488770D02*
Y518030D01*
Y488770D02*
X1364000Y488750D01*
X1325250Y498000D02*
Y538250D01*
Y498000D02*
X1334500Y488750D01*
X1471350Y857150D02*
X1471750Y856750D01*
X1471350Y857150D02*
Y903000D01*
X1420500Y856750D02*
X1420550Y856800D01*
Y903000D01*
X1369750Y857250D02*
X1370250Y856750D01*
X1369750Y857250D02*
Y903000D01*
X1344350Y857400D02*
X1345000Y856750D01*
X1344350Y857400D02*
Y903000D01*
X1293500Y856750D02*
X1293550Y856800D01*
Y903000D01*
X1495157Y449343D02*
G03*
X1525157Y479343I0J30000D01*
G01*
X1525000Y958000D02*
G03*
X1495000Y988000I-30000J0D01*
G01*
X1270000Y988250D02*
G03*
X1240000Y958250I0J-30000D01*
G01*
X1240270Y479770D02*
G03*
X1270270Y449770I30000J0D01*
G01*
Y449500D02*
X1495157Y449500D01*
X1525000Y958000D02*
X1525000Y479343D01*
X1270000Y988237D02*
X1495000Y988018D01*
X1240000Y958250D02*
X1240000Y479770D01*
X1270270Y449500D02*
X1341750D01*
X1365569Y453537D02*
Y460534D01*
X1369067D01*
X1370234Y459368D01*
Y457035D01*
X1369067Y455869D01*
X1365569D01*
X1377231Y459368D02*
X1376065Y460534D01*
X1373733D01*
X1372566Y459368D01*
Y454703D01*
X1373733Y453537D01*
X1376065D01*
X1377231Y454703D01*
X1379564Y460534D02*
Y453537D01*
X1383063D01*
X1384229Y454703D01*
Y455869D01*
X1383063Y457035D01*
X1379564D01*
X1383063D01*
X1384229Y458202D01*
Y459368D01*
X1383063Y460534D01*
X1379564D01*
X1398225D02*
X1393560D01*
Y453537D01*
X1398225D01*
X1393560Y457035D02*
X1395892D01*
X1405222Y460534D02*
Y453537D01*
X1401724D01*
X1400557Y454703D01*
Y457035D01*
X1401724Y458202D01*
X1405222D01*
X1409888Y451204D02*
X1411054D01*
X1412220Y452370D01*
Y458202D01*
X1408721D01*
X1407555Y457035D01*
Y454703D01*
X1408721Y453537D01*
X1412220D01*
X1418052D02*
X1415719D01*
X1414553Y454703D01*
Y457035D01*
X1415719Y458202D01*
X1418052D01*
X1419218Y457035D01*
Y455869D01*
X1414553D01*
D12*
X1341569Y446037D02*
Y519537D01*
Y446037D02*
X1430969D01*
Y519537D01*
X1341569D02*
X1430969D01*
X1331569Y450937D02*
X1440969D01*
X1321150Y538000D02*
Y554000D01*
Y538000D02*
X1329350D01*
Y554000D01*
X1321150D02*
X1329350D01*
X1482000Y805750D02*
Y813750D01*
Y805750D02*
X1498000D01*
Y813750D01*
X1482000D02*
X1498000D01*
X1482000Y789250D02*
Y797250D01*
Y789250D02*
X1498000D01*
Y797250D01*
X1482000D02*
X1498000D01*
X1371875Y557425D02*
Y573675D01*
X1401125D01*
Y557425D02*
Y573675D01*
X1371875Y557425D02*
X1401125D01*
X1411510Y735920D02*
Y760920D01*
X1379510Y735920D02*
X1411510D01*
X1379510Y760920D02*
X1411510D01*
X1379510Y735920D02*
Y760920D01*
D14*
X1429443Y522135D02*
G03*
X1426270Y518611I176J-3349D01*
G01*
X1432768Y519152D02*
G03*
X1429453Y522136I-3149J-165D01*
G01*
Y505137D02*
G03*
X1432768Y508122I165J3149D01*
G01*
X1426269Y508128D02*
G03*
X1429477Y505137I3100J108D01*
G01*
X1432769Y508137D02*
Y519137D01*
X1426269Y508137D02*
Y518637D01*
X1469660Y575610D02*
G03*
X1463564Y575610I-3048J0D01*
G01*
X1459500Y605582D02*
X1473724D01*
X1459500Y593136D02*
Y605582D01*
Y588056D02*
Y593136D01*
Y575610D02*
Y588056D01*
Y575610D02*
X1463564D01*
X1469660D01*
X1473724D01*
Y578404D01*
Y583484D01*
Y597708D01*
Y578404D02*
X1479058D01*
Y583484D01*
X1473724D02*
X1479058D01*
X1473724Y602788D02*
Y605582D01*
Y597708D02*
Y602788D01*
Y597708D02*
X1479058D01*
Y602788D01*
X1473724D02*
X1479058D01*
X1454166Y593136D02*
X1459500D01*
X1454166Y588056D02*
Y593136D01*
Y588056D02*
X1459500D01*
D15*
X1335519Y443537D02*
Y527737D01*
Y443537D02*
X1437019D01*
Y527737D01*
X1335519D02*
X1437019D01*
X1333450Y531100D02*
Y560900D01*
X1317050D02*
X1333450D01*
X1317050Y531100D02*
Y560900D01*
Y531100D02*
X1333450D01*
X1476300Y803050D02*
Y816450D01*
Y803050D02*
X1503700D01*
Y816450D01*
X1476300D02*
X1503700D01*
X1476300Y786550D02*
Y799950D01*
Y786550D02*
X1503700D01*
Y799950D01*
X1476300D02*
X1503700D01*
X1369375Y544450D02*
X1403625D01*
Y586650D01*
X1369375D02*
X1403625D01*
X1369375Y544450D02*
Y586650D01*
X1416010Y731420D02*
Y765420D01*
X1375010D02*
X1416010D01*
X1375010Y731420D02*
X1416010D01*
X1375010D02*
Y765420D01*
D16*
X1383769Y519537D02*
D03*
X1378769D02*
D03*
X1373769D02*
D03*
X1368769D02*
D03*
X1363769D02*
D03*
X1360769D02*
D03*
X1355769D02*
D03*
X1352769D02*
D03*
X1388769D02*
D03*
X1393769D02*
D03*
X1398769D02*
D03*
X1403769D02*
D03*
X1408769D02*
D03*
X1411769D02*
D03*
X1416769D02*
D03*
X1419769D02*
D03*
D17*
X1415780Y715790D02*
D03*
X1410780D02*
D03*
X1405780D02*
D03*
X1400780D02*
D03*
X1395780D02*
D03*
X1390780D02*
D03*
X1385780D02*
D03*
X1380780D02*
D03*
X1375780D02*
D03*
X1370780D02*
D03*
X1365780D02*
D03*
X1360780D02*
D03*
Y630790D02*
D03*
X1365780D02*
D03*
X1370780D02*
D03*
X1375780D02*
D03*
X1380780D02*
D03*
X1385780D02*
D03*
X1390780D02*
D03*
X1395780D02*
D03*
X1400780D02*
D03*
X1405780D02*
D03*
X1410780D02*
D03*
X1415780D02*
D03*
D18*
X1345780Y700790D02*
D03*
Y695790D02*
D03*
Y690790D02*
D03*
Y685790D02*
D03*
Y680790D02*
D03*
Y675790D02*
D03*
Y670790D02*
D03*
Y665790D02*
D03*
Y660790D02*
D03*
Y655790D02*
D03*
Y650790D02*
D03*
Y645790D02*
D03*
X1430780D02*
D03*
Y650790D02*
D03*
Y655790D02*
D03*
Y660790D02*
D03*
Y665790D02*
D03*
Y670790D02*
D03*
Y675790D02*
D03*
Y680790D02*
D03*
Y685790D02*
D03*
Y690790D02*
D03*
Y695790D02*
D03*
Y700790D02*
D03*
D19*
X1293500Y841750D02*
D03*
Y856750D02*
D03*
X1345000Y841750D02*
D03*
Y856750D02*
D03*
X1370250Y841750D02*
D03*
Y856750D02*
D03*
X1420500Y841750D02*
D03*
Y856750D02*
D03*
X1471750Y841750D02*
D03*
Y856750D02*
D03*
X1497500Y841750D02*
D03*
Y856750D02*
D03*
X1367000Y754632D02*
D03*
Y739632D02*
D03*
X1387000Y614250D02*
D03*
Y599250D02*
D03*
X1351750Y614250D02*
D03*
Y599250D02*
D03*
X1424250Y755500D02*
D03*
Y740500D02*
D03*
X1407370Y789210D02*
D03*
Y774210D02*
D03*
X1353140Y739632D02*
D03*
Y754632D02*
D03*
X1339250D02*
D03*
Y739632D02*
D03*
X1383240Y789210D02*
D03*
Y774210D02*
D03*
X1421750Y599250D02*
D03*
Y614250D02*
D03*
X1438250Y755500D02*
D03*
Y740500D02*
D03*
D20*
X1459553Y552596D02*
D03*
X1474553D02*
D03*
X1459553Y614846D02*
D03*
X1474553D02*
D03*
Y566596D02*
D03*
X1459553D02*
D03*
Y538596D02*
D03*
X1474553D02*
D03*
X1295000Y597250D02*
D03*
X1310000D02*
D03*
X1339250Y808000D02*
D03*
X1354250D02*
D03*
X1368070D02*
D03*
X1383070D02*
D03*
X1295750Y664000D02*
D03*
X1310750D02*
D03*
X1429500Y538000D02*
D03*
X1414500D02*
D03*
X1447250Y681000D02*
D03*
X1462250D02*
D03*
Y695750D02*
D03*
X1447250D02*
D03*
X1344000Y538000D02*
D03*
X1359000D02*
D03*
D21*
X1476772Y580944D02*
D03*
Y600248D02*
D03*
X1456452Y590596D02*
D03*
D22*
X1325250Y553750D02*
D03*
Y538250D02*
D03*
D23*
X1499500Y615000D02*
D03*
Y660250D02*
D03*
Y637625D02*
D03*
D24*
X1293000Y621750D02*
D03*
Y612250D02*
D03*
Y631250D02*
D03*
X1313000D02*
D03*
Y612250D02*
D03*
D25*
X1284750Y647750D02*
D03*
X1309750D02*
D03*
D26*
X1497500Y809750D02*
D03*
X1482500D02*
D03*
X1497500Y793250D02*
D03*
X1482500D02*
D03*
D27*
X1377000Y553000D02*
D03*
X1386500D02*
D03*
X1396000D02*
D03*
Y578100D02*
D03*
X1386500D02*
D03*
X1377000D02*
D03*
D28*
X1406510Y756920D02*
D03*
X1384510D02*
D03*
Y739920D02*
D03*
X1406510D02*
D03*
D48*
X1357369Y508837D02*
D03*
X1415169D02*
D03*
D49*
X1343019Y513637D02*
D03*
X1429519D02*
D03*
D50*
X1343019Y471837D02*
D03*
X1429519D02*
D03*
D51*
X1270000Y479500D02*
D03*
X1495000D02*
D03*
Y738500D02*
D03*
X1270000D02*
D03*
D52*
X1268150Y903000D02*
D03*
D53*
X1293550D02*
D03*
X1318950D02*
D03*
X1344350D02*
D03*
X1369750D02*
D03*
X1395150D02*
D03*
X1420550D02*
D03*
X1445950D02*
D03*
X1471350D02*
D03*
X1496750D02*
D03*
X1268150Y928400D02*
D03*
X1293550D02*
D03*
X1318950D02*
D03*
X1344350D02*
D03*
X1369750D02*
D03*
X1395150D02*
D03*
X1420550D02*
D03*
X1445950D02*
D03*
X1471350D02*
D03*
X1496750D02*
D03*
D54*
X1396000Y553000D02*
D03*
X1459553Y614846D02*
D03*
X1404750Y646750D02*
D03*
X1391250D02*
D03*
X1499500Y637625D02*
D03*
X1371460Y643040D02*
D03*
X1345500Y707472D02*
D03*
X1353750Y715750D02*
D03*
X1385250Y646750D02*
D03*
X1381063Y700250D02*
D03*
X1360710Y665750D02*
D03*
Y650750D02*
D03*
X1482500Y793250D02*
D03*
X1497500Y841750D02*
D03*
X1471750D02*
D03*
X1420500D02*
D03*
X1370250D02*
D03*
X1345000D02*
D03*
X1293500D02*
D03*
X1361500Y676000D02*
D03*
X1365250Y643250D02*
D03*
X1415000Y695750D02*
D03*
X1410750Y646750D02*
D03*
X1386750Y614250D02*
D03*
X1421500Y599000D02*
D03*
X1497250Y793250D02*
D03*
X1383000Y808500D02*
D03*
X1383250Y789250D02*
D03*
X1407000Y789000D02*
D03*
X1339250Y754500D02*
D03*
X1367000Y754750D02*
D03*
X1438000Y755500D02*
D03*
X1424000D02*
D03*
X1406500Y740000D02*
D03*
X1384000Y757000D02*
D03*
X1295750Y664000D02*
D03*
X1284750Y647750D02*
D03*
X1293000Y621500D02*
D03*
X1294750Y597250D02*
D03*
X1418500Y517750D02*
D03*
X1354500Y518000D02*
D03*
X1343750Y538250D02*
D03*
X1386250Y553000D02*
D03*
X1429500Y538000D02*
D03*
X1459500Y538500D02*
D03*
X1499250Y615000D02*
D03*
X1462250Y681000D02*
D03*
X1462000Y695750D02*
D03*
M02*
