G04*
G04 #@! TF.GenerationSoftware,Altium Limited,Altium Designer,20.0.12 (288)*
G04*
G04 Layer_Physical_Order=2*
G04 Layer_Color=9720587*
%FSLAX44Y44*%
%MOMM*%
G71*
G01*
G75*
%ADD10C,0.2000*%
%ADD11C,0.2540*%
%ADD12C,0.1270*%
%ADD14C,0.0000*%
%ADD15C,0.0500*%
%ADD48C,0.6500*%
%ADD49O,1.0000X2.0000*%
%ADD50O,0.9000X1.8000*%
%ADD51C,4.0000*%
%ADD52R,1.5000X1.5000*%
%ADD53C,1.5000*%
%ADD54C,0.4000*%
G36*
X1494988Y989500D02*
X1497037Y989500D01*
X1501100Y988965D01*
X1505058Y987904D01*
X1508844Y986336D01*
X1512393Y984287D01*
X1515645Y981792D01*
X1518542Y978895D01*
X1521037Y975643D01*
X1523086Y972094D01*
X1524655Y968308D01*
X1525715Y964350D01*
X1526250Y960287D01*
X1526250Y958238D01*
X1526250D01*
X1526250Y958238D01*
X1526250Y479163D01*
X1526250Y477137D01*
X1525721Y473119D01*
X1524672Y469205D01*
X1523122Y465461D01*
X1521095Y461952D01*
X1518629Y458737D01*
X1515763Y455871D01*
X1512548Y453405D01*
X1509039Y451378D01*
X1505295Y449828D01*
X1501381Y448779D01*
X1497363Y448250D01*
X1495337Y448250D01*
X1271500D01*
X1269353Y448250D01*
X1265097Y448810D01*
X1260950Y449921D01*
X1256984Y451564D01*
X1253266Y453711D01*
X1249860Y456324D01*
X1246824Y459360D01*
X1244211Y462766D01*
X1242064Y466484D01*
X1240421Y470450D01*
X1239310Y474597D01*
X1238750Y478853D01*
X1238750Y481000D01*
X1238750Y958274D01*
Y960321D01*
X1239284Y964379D01*
X1240344Y968333D01*
X1241910Y972114D01*
X1243957Y975659D01*
X1246449Y978907D01*
X1249343Y981801D01*
X1252591Y984293D01*
X1256136Y986340D01*
X1259917Y987906D01*
X1263871Y988966D01*
X1267930Y989500D01*
X1269976Y989500D01*
Y989500D01*
X1494988Y989500D01*
D02*
G37*
%LPC*%
G36*
X1268150Y937246D02*
X1265861Y936944D01*
X1263727Y936061D01*
X1261895Y934655D01*
X1260489Y932823D01*
X1259606Y930689D01*
X1259304Y928400D01*
X1259606Y926111D01*
X1260489Y923977D01*
X1261895Y922145D01*
X1263727Y920739D01*
X1265861Y919856D01*
X1268150Y919554D01*
X1270439Y919856D01*
X1272573Y920739D01*
X1274405Y922145D01*
X1275811Y923977D01*
X1276694Y926111D01*
X1276996Y928400D01*
X1276694Y930689D01*
X1275811Y932823D01*
X1274405Y934655D01*
X1272573Y936061D01*
X1270439Y936944D01*
X1268150Y937246D01*
D02*
G37*
G36*
X1276920Y911770D02*
X1259380D01*
Y894230D01*
X1276920D01*
Y911770D01*
D02*
G37*
G36*
X1496750Y911846D02*
X1494461Y911544D01*
X1492327Y910661D01*
X1490495Y909255D01*
X1489089Y907423D01*
X1488206Y905289D01*
X1487904Y903000D01*
X1488206Y900711D01*
X1489089Y898577D01*
X1490495Y896745D01*
X1492327Y895339D01*
X1494461Y894456D01*
X1496750Y894154D01*
X1499039Y894456D01*
X1501173Y895339D01*
X1503005Y896745D01*
X1504411Y898577D01*
X1505294Y900711D01*
X1505596Y903000D01*
X1505294Y905289D01*
X1504411Y907423D01*
X1503005Y909255D01*
X1501173Y910661D01*
X1499039Y911544D01*
X1496750Y911846D01*
D02*
G37*
G36*
X1471350D02*
X1469061Y911544D01*
X1466927Y910661D01*
X1465095Y909255D01*
X1463689Y907423D01*
X1462806Y905289D01*
X1462504Y903000D01*
X1462806Y900711D01*
X1463689Y898577D01*
X1465095Y896745D01*
X1466927Y895339D01*
X1469061Y894456D01*
X1471350Y894154D01*
X1473639Y894456D01*
X1475773Y895339D01*
X1477605Y896745D01*
X1479011Y898577D01*
X1479894Y900711D01*
X1480196Y903000D01*
X1479894Y905289D01*
X1479011Y907423D01*
X1477605Y909255D01*
X1475773Y910661D01*
X1473639Y911544D01*
X1471350Y911846D01*
D02*
G37*
G36*
X1445950D02*
X1443661Y911544D01*
X1441527Y910661D01*
X1439695Y909255D01*
X1438289Y907423D01*
X1437406Y905289D01*
X1437104Y903000D01*
X1437406Y900711D01*
X1438289Y898577D01*
X1439695Y896745D01*
X1441527Y895339D01*
X1443661Y894456D01*
X1445950Y894154D01*
X1448239Y894456D01*
X1450373Y895339D01*
X1452205Y896745D01*
X1453611Y898577D01*
X1454494Y900711D01*
X1454796Y903000D01*
X1454494Y905289D01*
X1453611Y907423D01*
X1452205Y909255D01*
X1450373Y910661D01*
X1448239Y911544D01*
X1445950Y911846D01*
D02*
G37*
G36*
X1420550D02*
X1418261Y911544D01*
X1416127Y910661D01*
X1414295Y909255D01*
X1412889Y907423D01*
X1412006Y905289D01*
X1411704Y903000D01*
X1412006Y900711D01*
X1412889Y898577D01*
X1414295Y896745D01*
X1416127Y895339D01*
X1418261Y894456D01*
X1420550Y894154D01*
X1422839Y894456D01*
X1424973Y895339D01*
X1426805Y896745D01*
X1428211Y898577D01*
X1429094Y900711D01*
X1429396Y903000D01*
X1429094Y905289D01*
X1428211Y907423D01*
X1426805Y909255D01*
X1424973Y910661D01*
X1422839Y911544D01*
X1420550Y911846D01*
D02*
G37*
G36*
X1395150D02*
X1392861Y911544D01*
X1390727Y910661D01*
X1388895Y909255D01*
X1387489Y907423D01*
X1386606Y905289D01*
X1386304Y903000D01*
X1386606Y900711D01*
X1387489Y898577D01*
X1388895Y896745D01*
X1390727Y895339D01*
X1392861Y894456D01*
X1395150Y894154D01*
X1397439Y894456D01*
X1399573Y895339D01*
X1401405Y896745D01*
X1402811Y898577D01*
X1403694Y900711D01*
X1403996Y903000D01*
X1403694Y905289D01*
X1402811Y907423D01*
X1401405Y909255D01*
X1399573Y910661D01*
X1397439Y911544D01*
X1395150Y911846D01*
D02*
G37*
G36*
X1369750D02*
X1367461Y911544D01*
X1365327Y910661D01*
X1363495Y909255D01*
X1362089Y907423D01*
X1361206Y905289D01*
X1360904Y903000D01*
X1361206Y900711D01*
X1362089Y898577D01*
X1363495Y896745D01*
X1365327Y895339D01*
X1367461Y894456D01*
X1369750Y894154D01*
X1372039Y894456D01*
X1374173Y895339D01*
X1376005Y896745D01*
X1377411Y898577D01*
X1378294Y900711D01*
X1378596Y903000D01*
X1378294Y905289D01*
X1377411Y907423D01*
X1376005Y909255D01*
X1374173Y910661D01*
X1372039Y911544D01*
X1369750Y911846D01*
D02*
G37*
G36*
X1344350D02*
X1342061Y911544D01*
X1339927Y910661D01*
X1338095Y909255D01*
X1336689Y907423D01*
X1335806Y905289D01*
X1335504Y903000D01*
X1335806Y900711D01*
X1336689Y898577D01*
X1338095Y896745D01*
X1339927Y895339D01*
X1342061Y894456D01*
X1344350Y894154D01*
X1346639Y894456D01*
X1348773Y895339D01*
X1350605Y896745D01*
X1352011Y898577D01*
X1352894Y900711D01*
X1353196Y903000D01*
X1352894Y905289D01*
X1352011Y907423D01*
X1350605Y909255D01*
X1348773Y910661D01*
X1346639Y911544D01*
X1344350Y911846D01*
D02*
G37*
G36*
X1318950D02*
X1316661Y911544D01*
X1314527Y910661D01*
X1312695Y909255D01*
X1311289Y907423D01*
X1310406Y905289D01*
X1310104Y903000D01*
X1310406Y900711D01*
X1311289Y898577D01*
X1312695Y896745D01*
X1314527Y895339D01*
X1316661Y894456D01*
X1318950Y894154D01*
X1321239Y894456D01*
X1323373Y895339D01*
X1325205Y896745D01*
X1326611Y898577D01*
X1327494Y900711D01*
X1327796Y903000D01*
X1327494Y905289D01*
X1326611Y907423D01*
X1325205Y909255D01*
X1323373Y910661D01*
X1321239Y911544D01*
X1318950Y911846D01*
D02*
G37*
G36*
X1293550D02*
X1291261Y911544D01*
X1289127Y910661D01*
X1287295Y909255D01*
X1285889Y907423D01*
X1285006Y905289D01*
X1284704Y903000D01*
X1285006Y900711D01*
X1285889Y898577D01*
X1287295Y896745D01*
X1289127Y895339D01*
X1291261Y894456D01*
X1293550Y894154D01*
X1295839Y894456D01*
X1297973Y895339D01*
X1299805Y896745D01*
X1301211Y898577D01*
X1302094Y900711D01*
X1302396Y903000D01*
X1302094Y905289D01*
X1301211Y907423D01*
X1299805Y909255D01*
X1297973Y910661D01*
X1295839Y911544D01*
X1293550Y911846D01*
D02*
G37*
G36*
X1497066Y856500D02*
X1288428D01*
X1287437Y856303D01*
X1286596Y855741D01*
X1278029Y847174D01*
X1277467Y846334D01*
X1277270Y845343D01*
Y768210D01*
X1277467Y767218D01*
X1278029Y766378D01*
X1283593Y760815D01*
X1284433Y760253D01*
X1285424Y760056D01*
X1290460D01*
X1293215Y757301D01*
Y715527D01*
X1293412Y714536D01*
X1293974Y713696D01*
X1302029Y705640D01*
X1302869Y705079D01*
X1303860Y704882D01*
X1343490D01*
X1344224Y704391D01*
X1345500Y704137D01*
X1346776Y704391D01*
X1347858Y705114D01*
X1348580Y706196D01*
X1348834Y707472D01*
X1348699Y708152D01*
X1349541Y709422D01*
X1350012D01*
X1351003Y709619D01*
X1351843Y710180D01*
X1354160Y712497D01*
X1355026Y712670D01*
X1356107Y713392D01*
X1356830Y714474D01*
X1357084Y715750D01*
X1356830Y717026D01*
X1356107Y718108D01*
X1355026Y718830D01*
X1353750Y719084D01*
X1352474Y718830D01*
X1351393Y718108D01*
X1350670Y717026D01*
X1350497Y716160D01*
X1348939Y714601D01*
X1305781D01*
X1302204Y718178D01*
Y759952D01*
X1302007Y760943D01*
X1301446Y761783D01*
X1294906Y768323D01*
X1294066Y768884D01*
X1293075Y769081D01*
X1288039D01*
X1286260Y770860D01*
Y842692D01*
X1291078Y847510D01*
X1342725D01*
X1343172Y846240D01*
X1342801Y845684D01*
X1342603Y844693D01*
Y844049D01*
X1342257Y843531D01*
X1340764Y843228D01*
X1340411Y843581D01*
X1339570Y844143D01*
X1338580Y844340D01*
X1295510D01*
X1294776Y844830D01*
X1293500Y845084D01*
X1292224Y844830D01*
X1291142Y844108D01*
X1290420Y843026D01*
X1290166Y841750D01*
X1290420Y840474D01*
X1291142Y839392D01*
X1292224Y838670D01*
X1293500Y838416D01*
X1294776Y838670D01*
X1295510Y839160D01*
X1337507D01*
X1341288Y835379D01*
X1342128Y834817D01*
X1343120Y834620D01*
X1346880D01*
X1347872Y834817D01*
X1348712Y835379D01*
X1352908Y839575D01*
X1363149D01*
X1363186Y839538D01*
X1363317Y838878D01*
X1363879Y838038D01*
X1366538Y835379D01*
X1367378Y834817D01*
X1368120Y834670D01*
X1368608Y834182D01*
Y814768D01*
X1368447Y814528D01*
X1368250Y813537D01*
Y803463D01*
X1368447Y802472D01*
X1368608Y802232D01*
Y794829D01*
X1368500Y794287D01*
Y784213D01*
X1368608Y783671D01*
Y757580D01*
X1368805Y756589D01*
X1368950Y756372D01*
Y715863D01*
X1367169Y714081D01*
X1366607Y713241D01*
X1366410Y712250D01*
Y712249D01*
X1366313Y711763D01*
Y681726D01*
X1365253Y680665D01*
X1363970D01*
X1362979Y680468D01*
X1362139Y679907D01*
X1361556Y679323D01*
X1361500Y679334D01*
X1360224Y679080D01*
X1359142Y678357D01*
X1358420Y677276D01*
X1358166Y676000D01*
X1358420Y674724D01*
X1359142Y673643D01*
X1360224Y672920D01*
X1361500Y672666D01*
X1362776Y672920D01*
X1363858Y673643D01*
X1364580Y674724D01*
X1364654Y675097D01*
X1365043Y675486D01*
X1366325D01*
X1367316Y675683D01*
X1368157Y676244D01*
X1368950Y677038D01*
X1370123Y676552D01*
Y655246D01*
X1363698Y648820D01*
X1363137Y647980D01*
X1362940Y646989D01*
Y645639D01*
X1362892Y645608D01*
X1362170Y644526D01*
X1361916Y643250D01*
X1362170Y641974D01*
X1362892Y640892D01*
X1363974Y640170D01*
X1365250Y639916D01*
X1366526Y640170D01*
X1367608Y640892D01*
X1369049Y640763D01*
X1369103Y640682D01*
X1370184Y639959D01*
X1371460Y639706D01*
X1372736Y639959D01*
X1373818Y640682D01*
X1374541Y641764D01*
X1374794Y643040D01*
X1374541Y644316D01*
X1374050Y645050D01*
Y646459D01*
X1378354Y650763D01*
X1378916Y651603D01*
X1379113Y652595D01*
Y707534D01*
X1380991Y709412D01*
X1381553Y710252D01*
X1381750Y711243D01*
Y786919D01*
X1381553Y787911D01*
X1381300Y788289D01*
Y790696D01*
X1381408Y791238D01*
Y806262D01*
X1381210Y807253D01*
X1381050Y807493D01*
Y809507D01*
X1381210Y809747D01*
X1381408Y810738D01*
Y839603D01*
X1381210Y840594D01*
X1380649Y841434D01*
X1375746Y846337D01*
X1376232Y847510D01*
X1494415D01*
X1494910Y847016D01*
Y843760D01*
X1494420Y843026D01*
X1494166Y841750D01*
X1494420Y840474D01*
X1494439Y840445D01*
X1493760Y839175D01*
X1475260D01*
X1474811Y840445D01*
X1474830Y840474D01*
X1475084Y841750D01*
X1474830Y843026D01*
X1474108Y844108D01*
X1473026Y844830D01*
X1471750Y845084D01*
X1470474Y844830D01*
X1469393Y844108D01*
X1468670Y843026D01*
X1468416Y841750D01*
X1468670Y840474D01*
X1469393Y839392D01*
X1469440Y839361D01*
Y838073D01*
X1469637Y837082D01*
X1470198Y836242D01*
X1471686Y834754D01*
X1472526Y834192D01*
X1473517Y833995D01*
X1499505D01*
X1500496Y834192D01*
X1501336Y834754D01*
X1503996Y837414D01*
X1504558Y838254D01*
X1504755Y839246D01*
Y848811D01*
X1504558Y849802D01*
X1503996Y850643D01*
X1498898Y855741D01*
X1498057Y856303D01*
X1497066Y856500D01*
D02*
G37*
G36*
X1420500Y845084D02*
X1419224Y844830D01*
X1418490Y844340D01*
X1395396D01*
X1394405Y844143D01*
X1393565Y843581D01*
X1389419Y839435D01*
X1388857Y838595D01*
X1388660Y837604D01*
Y649815D01*
X1388190Y649499D01*
X1387390Y649253D01*
X1386526Y649830D01*
X1385250Y650084D01*
X1383974Y649830D01*
X1382892Y649108D01*
X1382170Y648026D01*
X1381916Y646750D01*
X1382170Y645474D01*
X1382892Y644392D01*
X1382940Y644361D01*
Y643221D01*
X1383137Y642230D01*
X1383698Y641389D01*
X1385919Y639169D01*
X1386759Y638607D01*
X1387750Y638410D01*
X1397427D01*
X1402799Y633038D01*
X1402313Y631865D01*
X1400723D01*
X1399732Y631668D01*
X1398892Y631106D01*
X1394169Y626383D01*
X1393607Y625543D01*
X1393410Y624552D01*
Y555010D01*
X1392920Y554276D01*
X1392666Y553000D01*
X1392920Y551724D01*
X1393642Y550642D01*
X1394724Y549920D01*
X1396000Y549666D01*
X1397276Y549920D01*
X1398358Y550642D01*
X1399080Y551724D01*
X1399334Y553000D01*
X1399080Y554276D01*
X1398590Y555010D01*
Y623479D01*
X1401796Y626685D01*
X1455177D01*
X1456963Y624899D01*
Y616856D01*
X1456473Y616122D01*
X1456219Y614846D01*
X1456473Y613570D01*
X1457195Y612488D01*
X1458277Y611766D01*
X1459553Y611512D01*
X1460829Y611766D01*
X1461911Y612488D01*
X1462633Y613570D01*
X1462887Y614846D01*
X1462633Y616122D01*
X1462143Y616856D01*
Y625972D01*
X1461946Y626963D01*
X1461384Y627803D01*
X1459866Y629322D01*
X1460352Y630495D01*
X1501380D01*
X1502372Y630692D01*
X1503212Y631254D01*
X1506365Y634407D01*
X1506926Y635247D01*
X1507123Y636238D01*
Y710779D01*
X1506926Y711770D01*
X1506365Y712611D01*
X1503112Y715863D01*
X1502271Y716425D01*
X1501280Y716622D01*
X1500526D01*
X1500338Y717892D01*
X1503179Y718754D01*
X1506874Y720729D01*
X1510113Y723387D01*
X1512771Y726626D01*
X1514746Y730321D01*
X1515962Y734330D01*
X1516373Y738500D01*
X1515962Y742670D01*
X1514746Y746679D01*
X1512771Y750374D01*
X1510113Y753613D01*
X1506874Y756271D01*
X1503179Y758246D01*
X1499170Y759462D01*
X1495000Y759873D01*
X1490830Y759462D01*
X1486821Y758246D01*
X1483126Y756271D01*
X1479887Y753613D01*
X1477229Y750374D01*
X1475254Y746679D01*
X1474165Y743088D01*
X1472895Y743276D01*
Y789482D01*
X1474073Y790660D01*
X1480490D01*
X1481224Y790170D01*
X1482500Y789916D01*
X1483776Y790170D01*
X1484857Y790892D01*
X1485580Y791974D01*
X1485834Y793250D01*
X1485580Y794526D01*
X1484857Y795608D01*
X1483776Y796330D01*
X1482500Y796584D01*
X1481224Y796330D01*
X1480490Y795840D01*
X1473000D01*
X1472009Y795643D01*
X1471169Y795081D01*
X1468474Y792386D01*
X1467912Y791546D01*
X1467715Y790555D01*
Y727977D01*
X1467912Y726986D01*
X1468474Y726146D01*
X1482419Y712201D01*
X1483259Y711640D01*
X1484250Y711442D01*
X1500208D01*
X1501944Y709707D01*
Y641452D01*
X1500832Y640741D01*
X1500674Y640726D01*
X1499500Y640959D01*
X1498224Y640705D01*
X1497490Y640215D01*
X1410198D01*
X1407619Y642793D01*
Y645158D01*
X1407830Y645474D01*
X1408084Y646750D01*
X1407830Y648026D01*
X1407108Y649108D01*
X1406026Y649830D01*
X1404750Y650084D01*
X1403474Y649830D01*
X1402392Y649108D01*
X1401670Y648026D01*
X1401416Y646750D01*
X1401670Y645474D01*
X1402392Y644392D01*
X1402440Y644361D01*
Y642519D01*
X1401170Y641993D01*
X1400331Y642831D01*
X1399491Y643393D01*
X1398500Y643590D01*
X1394518D01*
X1393920Y644860D01*
X1394330Y645474D01*
X1394584Y646750D01*
X1394330Y648026D01*
X1393840Y648760D01*
Y836531D01*
X1396469Y839160D01*
X1418490D01*
X1419224Y838670D01*
X1420500Y838416D01*
X1421776Y838670D01*
X1422858Y839392D01*
X1423580Y840474D01*
X1423834Y841750D01*
X1423580Y843026D01*
X1422858Y844108D01*
X1421776Y844830D01*
X1420500Y845084D01*
D02*
G37*
G36*
X1270000Y759873D02*
X1265830Y759462D01*
X1261821Y758246D01*
X1258126Y756271D01*
X1254887Y753613D01*
X1252229Y750374D01*
X1250254Y746679D01*
X1249038Y742670D01*
X1248627Y738500D01*
X1249038Y734330D01*
X1250254Y730321D01*
X1252229Y726626D01*
X1254887Y723387D01*
X1258126Y720729D01*
X1261821Y718754D01*
X1265830Y717538D01*
X1270000Y717127D01*
X1274170Y717538D01*
X1278179Y718754D01*
X1281874Y720729D01*
X1285113Y723387D01*
X1287771Y726626D01*
X1289746Y730321D01*
X1290962Y734330D01*
X1291373Y738500D01*
X1290962Y742670D01*
X1289746Y746679D01*
X1287771Y750374D01*
X1285113Y753613D01*
X1281874Y756271D01*
X1278179Y758246D01*
X1274170Y759462D01*
X1270000Y759873D01*
D02*
G37*
G36*
X1415169Y513445D02*
X1413405Y513094D01*
X1411910Y512095D01*
X1410911Y510600D01*
X1410560Y508837D01*
X1410911Y507073D01*
X1411910Y505578D01*
X1413405Y504579D01*
X1415169Y504228D01*
X1416932Y504579D01*
X1418427Y505578D01*
X1419426Y507073D01*
X1419777Y508837D01*
X1419426Y510600D01*
X1418427Y512095D01*
X1416932Y513094D01*
X1415169Y513445D01*
D02*
G37*
G36*
X1357369D02*
X1355605Y513094D01*
X1354110Y512095D01*
X1353111Y510600D01*
X1352760Y508837D01*
X1353111Y507073D01*
X1354110Y505578D01*
X1355605Y504579D01*
X1357369Y504228D01*
X1359132Y504579D01*
X1360627Y505578D01*
X1361626Y507073D01*
X1361977Y508837D01*
X1361626Y510600D01*
X1360627Y512095D01*
X1359132Y513094D01*
X1357369Y513445D01*
D02*
G37*
G36*
X1495000Y500873D02*
X1490830Y500462D01*
X1486821Y499246D01*
X1483126Y497271D01*
X1479887Y494613D01*
X1477229Y491374D01*
X1475254Y487679D01*
X1474038Y483670D01*
X1473627Y479500D01*
X1474038Y475330D01*
X1475254Y471321D01*
X1477229Y467626D01*
X1479887Y464387D01*
X1483126Y461729D01*
X1486821Y459754D01*
X1490830Y458538D01*
X1495000Y458127D01*
X1499170Y458538D01*
X1503179Y459754D01*
X1506874Y461729D01*
X1510113Y464387D01*
X1512771Y467626D01*
X1514746Y471321D01*
X1515962Y475330D01*
X1516373Y479500D01*
X1515962Y483670D01*
X1514746Y487679D01*
X1512771Y491374D01*
X1510113Y494613D01*
X1506874Y497271D01*
X1503179Y499246D01*
X1499170Y500462D01*
X1495000Y500873D01*
D02*
G37*
G36*
X1270000D02*
X1265830Y500462D01*
X1261821Y499246D01*
X1258126Y497271D01*
X1254887Y494613D01*
X1252229Y491374D01*
X1250254Y487679D01*
X1249038Y483670D01*
X1248627Y479500D01*
X1249038Y475330D01*
X1250254Y471321D01*
X1252229Y467626D01*
X1254887Y464387D01*
X1258126Y461729D01*
X1261821Y459754D01*
X1265830Y458538D01*
X1270000Y458127D01*
X1274170Y458538D01*
X1278179Y459754D01*
X1281874Y461729D01*
X1285113Y464387D01*
X1287771Y467626D01*
X1289746Y471321D01*
X1290962Y475330D01*
X1291373Y479500D01*
X1290962Y483670D01*
X1289746Y487679D01*
X1287771Y491374D01*
X1285113Y494613D01*
X1281874Y497271D01*
X1278179Y499246D01*
X1274170Y500462D01*
X1270000Y500873D01*
D02*
G37*
%LPD*%
D10*
X1331519Y519537D02*
G03*
X1331519Y519537I-1000J0D01*
G01*
X1378050Y540000D02*
G03*
X1378050Y540000I-1000J0D01*
G01*
X1407510Y770420D02*
G03*
X1407510Y770420I-1000J0D01*
G01*
D11*
X1409125Y637625D02*
X1499500D01*
X1405029Y641721D02*
X1409125Y637625D01*
X1396000Y624552D02*
X1400723Y629275D01*
X1396000Y553000D02*
Y624552D01*
X1400723Y629275D02*
X1456250D01*
X1459553Y614846D02*
Y625972D01*
X1456250Y629275D02*
X1459553Y625972D01*
X1346790Y846290D02*
X1372130D01*
X1345000Y841750D02*
X1345193Y841943D01*
Y844693D02*
X1346790Y846290D01*
X1345193Y841943D02*
Y844693D01*
X1470305Y727977D02*
Y790555D01*
X1473000Y793250D02*
X1482500D01*
X1470305Y790555D02*
X1473000Y793250D01*
X1406415Y633085D02*
X1501380D01*
X1504533Y636238D01*
Y710779D01*
X1501280Y714032D02*
X1504533Y710779D01*
X1484250Y714032D02*
X1501280D01*
X1470305Y727977D02*
X1484250Y714032D01*
X1387750Y641000D02*
X1398500D01*
X1406415Y633085D01*
X1385529Y643221D02*
Y646471D01*
Y643221D02*
X1387750Y641000D01*
X1385250Y646750D02*
X1385529Y646471D01*
X1404750Y646750D02*
X1405029Y646471D01*
Y641721D02*
Y646471D01*
X1391250Y646750D02*
Y837604D01*
X1499505Y836585D02*
X1502165Y839246D01*
X1472029Y838073D02*
Y841471D01*
X1473517Y836585D02*
X1499505D01*
X1472029Y838073D02*
X1473517Y836585D01*
X1502165Y839246D02*
Y848811D01*
X1497066Y853910D02*
X1502165Y848811D01*
X1288428Y853910D02*
X1497066D01*
X1290006Y850100D02*
X1495488D01*
X1497500Y841750D02*
Y848088D01*
X1495488Y850100D02*
X1497500Y848088D01*
X1471750Y841750D02*
X1472029Y841471D01*
X1376523Y652595D02*
Y708606D01*
X1372713Y654173D02*
Y710184D01*
X1365250Y643250D02*
X1365529Y643529D01*
X1371460Y643040D02*
Y647532D01*
X1376523Y652595D01*
X1365529Y643529D02*
Y646989D01*
X1372713Y654173D01*
X1365710Y839870D02*
X1368369Y837210D01*
X1371198Y813895D02*
Y835255D01*
X1351835Y842164D02*
X1364222D01*
X1369242Y837210D02*
X1371198Y835255D01*
X1365710Y839870D02*
Y840676D01*
X1364222Y842164D02*
X1365710Y840676D01*
X1368369Y837210D02*
X1369242D01*
X1346880D02*
X1351835Y842164D01*
X1372130Y846290D02*
X1378818Y839603D01*
X1279860Y845343D02*
X1288428Y853910D01*
X1283670Y843764D02*
X1290006Y850100D01*
X1279860Y768210D02*
X1285424Y762646D01*
X1279860Y768210D02*
Y845343D01*
X1285424Y762646D02*
X1291533D01*
X1286966Y766492D02*
X1293075D01*
X1283670Y769788D02*
Y843764D01*
Y769788D02*
X1286966Y766492D01*
X1299615Y717105D02*
Y759952D01*
X1293075Y766492D02*
X1299615Y759952D01*
X1291533Y762646D02*
X1295805Y758374D01*
Y715527D02*
Y758374D01*
X1299615Y717105D02*
X1304708Y712012D01*
X1350012D01*
X1295805Y715527D02*
X1303860Y707472D01*
X1345500D01*
X1350012Y712012D02*
X1353750Y715750D01*
X1293500Y841750D02*
X1338580D01*
X1343120Y837210D02*
X1346880D01*
X1338580Y841750D02*
X1343120Y837210D01*
X1395396Y841750D02*
X1420500D01*
X1391250Y837604D02*
X1395396Y841750D01*
X1371090Y784213D02*
Y794287D01*
X1371198Y757580D02*
X1371540Y757238D01*
X1369000Y712250D02*
X1371540Y714790D01*
X1370250Y841750D02*
X1375008Y836992D01*
X1374650Y805041D02*
Y811959D01*
X1374900Y785791D02*
Y792709D01*
X1376523Y708606D02*
X1379160Y711243D01*
X1378710Y787370D02*
X1379160Y786919D01*
Y711243D02*
Y786919D01*
X1378818Y791238D02*
Y806262D01*
X1378710Y787370D02*
Y791131D01*
X1378460Y806619D02*
X1378818Y806262D01*
X1378460Y806619D02*
Y810380D01*
X1378818Y810738D02*
Y839603D01*
X1366325Y678075D02*
X1368903Y680653D01*
X1371198Y794395D02*
Y803105D01*
X1371090Y784213D02*
X1371198Y784105D01*
X1374650Y811959D02*
X1375008Y812317D01*
X1378710Y791131D02*
X1378818Y791238D01*
X1370840Y813537D02*
X1371198Y813895D01*
X1370840Y803463D02*
X1371198Y803105D01*
Y757580D02*
Y784105D01*
X1371540Y714790D02*
Y757238D01*
X1368903Y711763D02*
X1369000Y711859D01*
X1372713Y710184D02*
X1375350Y712821D01*
X1375008Y812317D02*
Y836992D01*
X1378460Y810380D02*
X1378818Y810738D01*
X1368903Y680653D02*
Y711763D01*
X1371090Y794287D02*
X1371198Y794395D01*
X1370840Y803463D02*
Y813537D01*
X1369000Y711859D02*
Y712250D01*
X1374900Y792709D02*
X1375008Y792816D01*
X1374900Y785791D02*
X1375350Y785341D01*
X1374650Y805041D02*
X1375008Y804684D01*
Y792816D02*
Y804684D01*
X1375350Y712821D02*
Y785341D01*
X1361500Y676000D02*
X1361895D01*
X1363970Y678075D01*
X1366325D01*
X1495157Y449343D02*
G03*
X1525157Y479343I0J30000D01*
G01*
X1525000Y958000D02*
G03*
X1495000Y988000I-30000J0D01*
G01*
X1270000Y988250D02*
G03*
X1240000Y958250I0J-30000D01*
G01*
X1240270Y479770D02*
G03*
X1270270Y449770I30000J0D01*
G01*
Y449500D02*
X1495157Y449500D01*
X1525000Y958000D02*
X1525000Y479343D01*
X1270000Y988237D02*
X1495000Y988018D01*
X1240000Y958250D02*
X1240000Y479770D01*
X1270270Y449500D02*
X1341750D01*
X1365569Y453537D02*
Y460534D01*
X1369067D01*
X1370234Y459368D01*
Y457035D01*
X1369067Y455869D01*
X1365569D01*
X1377231Y459368D02*
X1376065Y460534D01*
X1373733D01*
X1372566Y459368D01*
Y454703D01*
X1373733Y453537D01*
X1376065D01*
X1377231Y454703D01*
X1379564Y460534D02*
Y453537D01*
X1383063D01*
X1384229Y454703D01*
Y455869D01*
X1383063Y457035D01*
X1379564D01*
X1383063D01*
X1384229Y458202D01*
Y459368D01*
X1383063Y460534D01*
X1379564D01*
X1398225D02*
X1393560D01*
Y453537D01*
X1398225D01*
X1393560Y457035D02*
X1395892D01*
X1405222Y460534D02*
Y453537D01*
X1401724D01*
X1400557Y454703D01*
Y457035D01*
X1401724Y458202D01*
X1405222D01*
X1409888Y451204D02*
X1411054D01*
X1412220Y452370D01*
Y458202D01*
X1408721D01*
X1407555Y457035D01*
Y454703D01*
X1408721Y453537D01*
X1412220D01*
X1418052D02*
X1415719D01*
X1414553Y454703D01*
Y457035D01*
X1415719Y458202D01*
X1418052D01*
X1419218Y457035D01*
Y455869D01*
X1414553D01*
D12*
X1341569Y446037D02*
Y519537D01*
Y446037D02*
X1430969D01*
Y519537D01*
X1341569D02*
X1430969D01*
X1331569Y450937D02*
X1440969D01*
X1321150Y538000D02*
Y554000D01*
Y538000D02*
X1329350D01*
Y554000D01*
X1321150D02*
X1329350D01*
X1482000Y805750D02*
Y813750D01*
Y805750D02*
X1498000D01*
Y813750D01*
X1482000D02*
X1498000D01*
X1482000Y789250D02*
Y797250D01*
Y789250D02*
X1498000D01*
Y797250D01*
X1482000D02*
X1498000D01*
X1371875Y557425D02*
Y573675D01*
X1401125D01*
Y557425D02*
Y573675D01*
X1371875Y557425D02*
X1401125D01*
X1411510Y735920D02*
Y760920D01*
X1379510Y735920D02*
X1411510D01*
X1379510Y760920D02*
X1411510D01*
X1379510Y735920D02*
Y760920D01*
D14*
X1429443Y522135D02*
G03*
X1426270Y518611I176J-3349D01*
G01*
X1432768Y519152D02*
G03*
X1429453Y522136I-3149J-165D01*
G01*
Y505137D02*
G03*
X1432768Y508122I165J3149D01*
G01*
X1426269Y508128D02*
G03*
X1429477Y505137I3100J108D01*
G01*
X1432769Y508137D02*
Y519137D01*
X1426269Y508137D02*
Y518637D01*
X1469660Y575610D02*
G03*
X1463564Y575610I-3048J0D01*
G01*
X1459500Y605582D02*
X1473724D01*
X1459500Y593136D02*
Y605582D01*
Y588056D02*
Y593136D01*
Y575610D02*
Y588056D01*
Y575610D02*
X1463564D01*
X1469660D01*
X1473724D01*
Y578404D01*
Y583484D01*
Y597708D01*
Y578404D02*
X1479058D01*
Y583484D01*
X1473724D02*
X1479058D01*
X1473724Y602788D02*
Y605582D01*
Y597708D02*
Y602788D01*
Y597708D02*
X1479058D01*
Y602788D01*
X1473724D02*
X1479058D01*
X1454166Y593136D02*
X1459500D01*
X1454166Y588056D02*
Y593136D01*
Y588056D02*
X1459500D01*
D15*
X1335519Y443537D02*
Y527737D01*
Y443537D02*
X1437019D01*
Y527737D01*
X1335519D02*
X1437019D01*
X1333450Y531100D02*
Y560900D01*
X1317050D02*
X1333450D01*
X1317050Y531100D02*
Y560900D01*
Y531100D02*
X1333450D01*
X1476300Y803050D02*
Y816450D01*
Y803050D02*
X1503700D01*
Y816450D01*
X1476300D02*
X1503700D01*
X1476300Y786550D02*
Y799950D01*
Y786550D02*
X1503700D01*
Y799950D01*
X1476300D02*
X1503700D01*
X1369375Y544450D02*
X1403625D01*
Y586650D01*
X1369375D02*
X1403625D01*
X1369375Y544450D02*
Y586650D01*
X1416010Y731420D02*
Y765420D01*
X1375010D02*
X1416010D01*
X1375010Y731420D02*
X1416010D01*
X1375010D02*
Y765420D01*
D48*
X1357369Y508837D02*
D03*
X1415169D02*
D03*
D49*
X1343019Y513637D02*
D03*
X1429519D02*
D03*
D50*
X1343019Y471837D02*
D03*
X1429519D02*
D03*
D51*
X1270000Y479500D02*
D03*
X1495000D02*
D03*
Y738500D02*
D03*
X1270000D02*
D03*
D52*
X1268150Y903000D02*
D03*
D53*
X1293550D02*
D03*
X1318950D02*
D03*
X1344350D02*
D03*
X1369750D02*
D03*
X1395150D02*
D03*
X1420550D02*
D03*
X1445950D02*
D03*
X1471350D02*
D03*
X1496750D02*
D03*
X1268150Y928400D02*
D03*
X1293550D02*
D03*
X1318950D02*
D03*
X1344350D02*
D03*
X1369750D02*
D03*
X1395150D02*
D03*
X1420550D02*
D03*
X1445950D02*
D03*
X1471350D02*
D03*
X1496750D02*
D03*
D54*
X1396000Y553000D02*
D03*
X1459553Y614846D02*
D03*
X1404750Y646750D02*
D03*
X1391250D02*
D03*
X1499500Y637625D02*
D03*
X1371460Y643040D02*
D03*
X1345500Y707472D02*
D03*
X1353750Y715750D02*
D03*
X1385250Y646750D02*
D03*
X1381063Y700250D02*
D03*
X1360710Y665750D02*
D03*
Y650750D02*
D03*
X1482500Y793250D02*
D03*
X1497500Y841750D02*
D03*
X1471750D02*
D03*
X1420500D02*
D03*
X1370250D02*
D03*
X1345000D02*
D03*
X1293500D02*
D03*
X1361500Y676000D02*
D03*
X1365250Y643250D02*
D03*
X1415000Y695750D02*
D03*
X1410750Y646750D02*
D03*
X1386750Y614250D02*
D03*
X1421500Y599000D02*
D03*
X1497250Y793250D02*
D03*
X1383000Y808500D02*
D03*
X1383250Y789250D02*
D03*
X1407000Y789000D02*
D03*
X1339250Y754500D02*
D03*
X1367000Y754750D02*
D03*
X1438000Y755500D02*
D03*
X1424000D02*
D03*
X1406500Y740000D02*
D03*
X1384000Y757000D02*
D03*
X1295750Y664000D02*
D03*
X1284750Y647750D02*
D03*
X1293000Y621500D02*
D03*
X1294750Y597250D02*
D03*
X1418500Y517750D02*
D03*
X1354500Y518000D02*
D03*
X1343750Y538250D02*
D03*
X1386250Y553000D02*
D03*
X1429500Y538000D02*
D03*
X1459500Y538500D02*
D03*
X1499250Y615000D02*
D03*
X1462250Y681000D02*
D03*
X1462000Y695750D02*
D03*
M02*
