M48
;Layer_Color=9474304
;FILE_FORMAT=4:4
METRIC,LZ
;TYPE=PLATED
T1F00S00C0.2000
T3F00S00C0.9000
T4F00S00C3.0000
;TYPE=NON_PLATED
T5F00S00C0.6500
%
T01
X013545Y00518
X0134375Y0053825
X0138625Y00553
X01396Y00553
X014295Y00538
X014595Y005385
X014185Y0051775
X014215Y00599
X0138675Y0061425
X0138525Y0064675
X0139125
X0140475
X0141075
X0137146Y0064304
X0136525Y0064325
X0136071Y0065075
Y0066575
X013615Y00676
X01381063Y0070025
X01415Y0069575
X01462
X0146225Y00681
X01459553Y00614846
X0149925Y00615
X014995Y00637625
X0149725Y0079325
X014825
X01407Y00789
X0138325Y0078925
X01384Y00757
X01367Y0075475
X0133925Y007545
X0135375Y0071575
X013455Y00707472
X0129575Y00664
X0128475Y0064775
X01293Y006215
X0129475Y0059725
X014065Y0074
X01424Y007555
X01438
X014205Y0084175
X0137025
X01345
X012935
X01383Y008085
X0147175Y0084175
X014975
T03
X0126815Y00903
X0129355
X0131895
X0134435
X0136975
X0139515
X0142055
X0144595
X0147135
X0149675
Y009284
X0147135
X0144595
X0142055
X0139515
X0136975
X0134435
X0131895
X0129355
X0126815
T04
X0127Y004795
X01495
Y007385
X0127
T05
X01357369Y00508837
X01415169
M30
