G04*
G04 #@! TF.GenerationSoftware,Altium Limited,Altium Designer,20.0.12 (288)*
G04*
G04 Layer_Color=16711935*
%FSLAX44Y44*%
%MOMM*%
G71*
G01*
G75*
%ADD10C,0.2000*%
%ADD11C,0.2540*%
%ADD12C,0.1270*%
%ADD14C,0.0000*%
%ADD15C,0.0500*%
D10*
X1331519Y519537D02*
G03*
X1331519Y519537I-1000J0D01*
G01*
X1378050Y540000D02*
G03*
X1378050Y540000I-1000J0D01*
G01*
X1407510Y770420D02*
G03*
X1407510Y770420I-1000J0D01*
G01*
D11*
X1495157Y449343D02*
G03*
X1525157Y479343I0J30000D01*
G01*
X1525000Y958000D02*
G03*
X1495000Y988000I-30000J0D01*
G01*
X1270000Y988250D02*
G03*
X1240000Y958250I0J-30000D01*
G01*
X1240270Y479770D02*
G03*
X1270270Y449770I30000J0D01*
G01*
Y449500D02*
X1495157Y449500D01*
X1525000Y958000D02*
X1525000Y479343D01*
X1270000Y988237D02*
X1495000Y988018D01*
X1240000Y958250D02*
X1240000Y479770D01*
X1270270Y449500D02*
X1341750D01*
X1365569Y453537D02*
Y460534D01*
X1369067D01*
X1370234Y459368D01*
Y457035D01*
X1369067Y455869D01*
X1365569D01*
X1377231Y459368D02*
X1376065Y460534D01*
X1373733D01*
X1372566Y459368D01*
Y454703D01*
X1373733Y453537D01*
X1376065D01*
X1377231Y454703D01*
X1379564Y460534D02*
Y453537D01*
X1383063D01*
X1384229Y454703D01*
Y455869D01*
X1383063Y457035D01*
X1379564D01*
X1383063D01*
X1384229Y458202D01*
Y459368D01*
X1383063Y460534D01*
X1379564D01*
X1398225D02*
X1393560D01*
Y453537D01*
X1398225D01*
X1393560Y457035D02*
X1395892D01*
X1405222Y460534D02*
Y453537D01*
X1401724D01*
X1400557Y454703D01*
Y457035D01*
X1401724Y458202D01*
X1405222D01*
X1409888Y451204D02*
X1411054D01*
X1412220Y452370D01*
Y458202D01*
X1408721D01*
X1407555Y457035D01*
Y454703D01*
X1408721Y453537D01*
X1412220D01*
X1418052D02*
X1415719D01*
X1414553Y454703D01*
Y457035D01*
X1415719Y458202D01*
X1418052D01*
X1419218Y457035D01*
Y455869D01*
X1414553D01*
D12*
X1341569Y446037D02*
Y519537D01*
Y446037D02*
X1430969D01*
Y519537D01*
X1341569D02*
X1430969D01*
X1331569Y450937D02*
X1440969D01*
X1321150Y538000D02*
Y554000D01*
Y538000D02*
X1329350D01*
Y554000D01*
X1321150D02*
X1329350D01*
X1482000Y805750D02*
Y813750D01*
Y805750D02*
X1498000D01*
Y813750D01*
X1482000D02*
X1498000D01*
X1482000Y789250D02*
Y797250D01*
Y789250D02*
X1498000D01*
Y797250D01*
X1482000D02*
X1498000D01*
X1371875Y557425D02*
Y573675D01*
X1401125D01*
Y557425D02*
Y573675D01*
X1371875Y557425D02*
X1401125D01*
X1411510Y735920D02*
Y760920D01*
X1379510Y735920D02*
X1411510D01*
X1379510Y760920D02*
X1411510D01*
X1379510Y735920D02*
Y760920D01*
D14*
X1429443Y522135D02*
G03*
X1426270Y518611I176J-3349D01*
G01*
X1432768Y519152D02*
G03*
X1429453Y522136I-3149J-165D01*
G01*
Y505137D02*
G03*
X1432768Y508122I165J3149D01*
G01*
X1426269Y508128D02*
G03*
X1429477Y505137I3100J108D01*
G01*
X1432769Y508137D02*
Y519137D01*
X1426269Y508137D02*
Y518637D01*
X1469660Y575610D02*
G03*
X1463564Y575610I-3048J0D01*
G01*
X1459500Y605582D02*
X1473724D01*
X1459500Y593136D02*
Y605582D01*
Y588056D02*
Y593136D01*
Y575610D02*
Y588056D01*
Y575610D02*
X1463564D01*
X1469660D01*
X1473724D01*
Y578404D01*
Y583484D01*
Y597708D01*
Y578404D02*
X1479058D01*
Y583484D01*
X1473724D02*
X1479058D01*
X1473724Y602788D02*
Y605582D01*
Y597708D02*
Y602788D01*
Y597708D02*
X1479058D01*
Y602788D01*
X1473724D02*
X1479058D01*
X1454166Y593136D02*
X1459500D01*
X1454166Y588056D02*
Y593136D01*
Y588056D02*
X1459500D01*
D15*
X1335519Y443537D02*
Y527737D01*
Y443537D02*
X1437019D01*
Y527737D01*
X1335519D02*
X1437019D01*
X1333450Y531100D02*
Y560900D01*
X1317050D02*
X1333450D01*
X1317050Y531100D02*
Y560900D01*
Y531100D02*
X1333450D01*
X1476300Y803050D02*
Y816450D01*
Y803050D02*
X1503700D01*
Y816450D01*
X1476300D02*
X1503700D01*
X1476300Y786550D02*
Y799950D01*
Y786550D02*
X1503700D01*
Y799950D01*
X1476300D02*
X1503700D01*
X1369375Y544450D02*
X1403625D01*
Y586650D01*
X1369375D02*
X1403625D01*
X1369375Y544450D02*
Y586650D01*
X1416010Y731420D02*
Y765420D01*
X1375010D02*
X1416010D01*
X1375010Y731420D02*
X1416010D01*
X1375010D02*
Y765420D01*
M02*
